Fly_normalized_Motion_pl05
version=1
nRows=16
nColumns=43
inDegrees=yes
endheader
time		pelvis_tilt		pelvis_list		pelvis_rotation		pelvis_tx		pelvis_ty		pelvis_tz		hip_flexion_r		hip_adduction_r		hip_rotation_r		knee_angle_r		ankle_angle_r		subtalar_angle_r		mtp_angle_r		hip_flexion_l		hip_adduction_l		hip_rotation_l		knee_angle_l		ankle_angle_l		subtalar_angle_l		mtp_angle_l		lumbar_extension		lumbar_bending		lumbar_rotation		neck_flexion		neck_lateral_bending		neck_rotation		arm_flex_r		arm_add_r		arm_rot_r		elbow_flex_r		pro_sup_r		wrist_flex_r		wrist_dev_r		hand_finger_flex_r		arm_flex_l		arm_add_l		arm_rot_l		elbow_flex_l		pro_sup_l		wrist_flex_l		wrist_dev_l		hand_finger_flex_l		
0.875480		-2.325498		-8.865756		89.258256		0.009253		1.902930		1.246567		60.805571		-4.916729		-3.485502		-98.427102		-9.342217		-4.886656		8.050547		57.257282		-1.604511		-6.531869		-100.844558		-9.961878		-12.271835		10.357807		-50.164830		-1.517215		1.898617		8.146713		-1.584312		-2.221688		96.727303		-25.944984		36.039443		77.543779		88.337762		-42.471650		-1.444671		36.699304		88.053862		-16.205539		19.596613		79.086437		107.794494		-27.224083		15.168289		84.398740		
0.879899		-2.354557		-8.612088		89.265341		0.009095		1.899152		1.237857		60.799803		-4.950209		-3.603359		-96.948613		-9.536906		-4.800208		8.699212		57.184092		-1.588632		-6.848548		-99.447565		-10.132227		-11.645123		11.090733		-50.314656		-1.512098		1.828548		7.777576		-1.614031		-2.144253		94.264170		-27.003591		35.870581		78.560100		88.445072		-42.610394		-1.362080		36.926996		85.531170		-16.956142		19.261327		79.794835		107.944790		-26.910012		15.442964		84.763917		
0.884318		-2.352097		-8.469653		89.308583		0.009119		1.895380		1.229208		60.823736		-4.971041		-3.774836		-95.347132		-9.830508		-4.824023		9.894263		57.172888		-1.591790		-7.053552		-97.954647		-10.280070		-10.730808		12.575609		-50.387006		-1.496641		1.727310		7.533460		-1.622864		-1.983720		91.492771		-27.845858		35.205833		79.557360		88.632631		-42.718470		-1.221116		37.328880		82.856544		-17.514059		18.512984		80.510202		108.512502		-26.443923		15.895706		84.914088		
0.888737		-2.308335		-8.237263		89.327333		0.008960		1.891272		1.220505		60.712385		-4.990367		-3.959949		-93.754264		-10.075881		-4.805760		10.483843		57.038583		-1.599632		-7.234233		-96.475912		-10.482678		-10.229641		13.382225		-50.524390		-1.425244		1.668994		7.138827		-1.665188		-1.869786		89.054365		-28.929001		35.210840		80.395861		88.794153		-42.724534		-1.195741		37.623453		80.293511		-18.422388		18.269297		81.139540		108.828478		-26.127198		16.112683		84.946689		
0.893157		-2.200408		-8.246114		89.374034		0.008975		1.886429		1.211796		60.807288		-4.955617		-4.200122		-92.109434		-10.602405		-4.945269		12.788938		57.146912		-1.680783		-7.236684		-95.000815		-10.647709		-9.093092		16.794754		-50.359192		-1.338430		1.609114		6.659732		-1.563937		-1.683508		86.226582		-29.823052		34.677690		81.160679		89.634034		-42.434952		-0.849641		38.687942		77.518599		-19.197388		17.594735		81.867402		110.357655		-24.664104		16.690544		84.396480		
0.897576		-2.192789		-7.941034		89.371163		0.008684		1.882201		1.202901		60.489590		-5.011939		-4.329022		-90.402059		-10.843240		-4.833793		13.007667		56.812308		-1.663071		-7.441414		-93.404372		-10.983747		-8.974918		17.211483		-50.598419		-1.262560		1.554380		6.445586		-1.803212		-1.595897		83.638704		-30.876142		34.591082		81.911757		89.667078		-42.744143		-0.844158		38.756918		74.766152		-20.012199		17.069214		82.397288		110.189676		-24.610171		16.760584		84.421184		
0.901995		-2.200046		-7.694995		89.370878		0.008386		1.877514		1.193893		60.202259		-5.081222		-4.440378		-88.720565		-11.074367		-4.725057		13.234872		56.504085		-1.638764		-7.606508		-91.825924		-11.153972		-8.615532		17.709099		-50.721608		-1.210474		1.451288		6.062919		-1.931057		-1.483375		80.914396		-31.871865		34.418638		82.537777		89.785425		-42.916836		-0.751172		38.905068		71.952012		-20.901712		16.585607		82.873940		110.314544		-24.505635		16.887413		84.476384		
0.906414		-2.203192		-7.432578		89.364585		0.007989		1.872499		1.184760		59.873245		-5.144419		-4.538522		-87.060632		-11.317983		-4.621268		13.396941		56.149758		-1.614423		-7.762053		-90.277905		-11.329293		-8.337913		18.094288		-50.827199		-1.152424		1.373522		5.564726		-2.038164		-1.391372		78.216981		-32.962261		34.373137		83.096508		89.937955		-42.987570		-0.671766		39.051661		69.112175		-21.876128		16.219547		83.307122		110.439673		-24.405232		17.034093		84.565521		
0.910833		-2.202990		-7.151922		89.371987		0.007615		1.867432		1.175503		59.454045		-5.199734		-4.637690		-85.334196		-11.594472		-4.532781		13.630943		55.701887		-1.594292		-7.900336		-88.651616		-11.493842		-8.140214		18.610026		-50.954164		-1.087210		1.258366		5.176326		-2.150121		-1.287120		75.293652		-33.802596		33.909835		83.539790		90.216703		-43.007346		-0.593287		39.198956		66.126256		-22.686638		15.489602		83.690348		110.610424		-24.316243		17.210531		84.627749		
0.915253		-2.190133		-6.847204		89.398752		0.007314		1.862117		1.166184		58.979248		-5.238051		-4.747160		-83.628166		-11.892294		-4.487458		14.018655		55.193417		-1.588684		-8.022259		-87.020605		-11.729507		-8.129283		19.360470		-51.098206		-1.025675		1.125605		4.747783		-2.202796		-1.173132		72.373944		-34.666635		33.446864		83.873732		90.789891		-42.692042		-0.538504		39.429789		63.153268		-23.588824		14.826768		84.063105		110.849733		-24.008972		17.367020		84.660026		
0.919672		-2.179497		-6.468035		89.446957		0.007080		1.856761		1.156748		58.355331		-5.299046		-4.881544		-81.870005		-12.326242		-4.519593		15.055333		54.546431		-1.576256		-8.148614		-85.327918		-12.219787		-8.530952		21.156726		-51.325095		-0.958798		0.924348		4.371220		-2.224305		-0.998182		69.227368		-35.291909		32.421480		84.064189		92.281181		-41.562163		-0.445428		39.829928		60.048081		-24.412418		13.814089		84.479285		111.242499		-23.020143		17.444315		84.504753		
0.924091		-2.137274		-6.175979		89.485663		0.006853		1.850976		1.147325		57.791756		-5.329171		-5.032469		-80.106147		-12.720772		-4.485765		15.538368		53.982928		-1.597392		-8.262610		-83.658597		-12.681218		-9.179677		21.876737		-51.465464		-0.865100		0.764424		4.085315		-2.291206		-0.885052		66.135986		-35.969630		31.660454		84.281686		92.774160		-41.221121		-0.457602		39.920799		56.858050		-25.192729		12.743281		84.805134		110.906004		-22.455534		17.337229		84.474576		
0.928510		-2.113702		-5.920126		89.506634		0.006635		1.844770		1.137863		57.257721		-5.368857		-5.144528		-78.371555		-13.173656		-4.363039		15.860427		53.446671		-1.631274		-8.377349		-82.031887		-13.048779		-9.585862		22.367918		-51.519604		-0.802305		0.609302		3.638046		-2.358726		-0.849468		63.030220		-36.679679		31.016363		84.410259		93.046489		-41.074224		-0.380707		39.971059		53.633868		-25.865782		11.640852		85.000135		110.635710		-22.111224		17.330511		84.468198		
0.932929		-2.138740		-5.724632		89.556622		0.006485		1.838246		1.128348		56.750764		-5.455879		-5.247277		-76.641798		-13.565021		-4.339734		16.205504		52.948568		-1.601866		-8.527103		-80.375411		-13.577811		-10.561422		22.693826		-51.530568		-0.778697		0.316671		3.366622		-2.359399		-0.642458		59.746484		-37.172824		29.957113		84.459287		93.401505		-40.333312		-0.370984		40.300813		50.343512		-26.601248		10.408419		85.256743		110.509484		-21.609518		17.260461		84.687927		
0.937348		-2.125771		-5.495819		89.581379		0.006277		1.831303		1.118697		56.210294		-5.503651		-5.333689		-74.971236		-14.036389		-4.196947		16.237005		52.426884		-1.647633		-8.630027		-78.847173		-13.841286		-10.884745		22.727702		-51.491314		-0.729019		0.150307		2.747338		-2.400606		-0.639651		56.550074		-37.859294		29.331245		84.471925		93.352079		-40.373538		-0.224602		40.356804		47.044731		-27.224506		9.305627		85.307099		110.391216		-21.623552		17.339023		84.889432		
0.941768		-2.126137		-5.288301		89.650504		0.006181		1.824260		1.109052		55.638716		-5.567316		-5.425092		-73.258282		-14.510442		-4.168923		16.261412		51.873455		-1.650847		-8.723199		-77.241619		-14.192253		-11.592170		22.679891		-51.465582		-0.691215		-0.111229		2.335870		-2.394399		-0.531699		53.193465		-38.289171		28.289670		84.378018		93.286517		-40.080272		-0.141229		40.562675		43.698866		-27.803990		7.993170		85.314151		110.543129		-21.638899		17.265424		85.287647		
